<?xml version="1.0" standalone="no"?>
<!DOCTYPE svg PUBLIC "-//W3C//DTD SVG 20010904//EN"
 "http://www.w3.org/TR/2001/REC-SVG-20010904/DTD/svg10.dtd">
<svg version="1.0" xmlns="http://www.w3.org/2000/svg"
 width="1921.000000pt" height="1921.000000pt" viewBox="0 0 1921.000000 1921.000000"
 preserveAspectRatio="xMidYMid meet">
<metadata>
Created by potrace 1.14, written by Peter Selinger 2001-2017
</metadata>
<g transform="translate(0.000000,1921.000000) scale(0.100000,-0.100000)"
fill="#000000" stroke="none">
<path d="M9135 19199 c-1757 -87 -3434 -644 -4890 -1623 -2377 -1599 -3919
-4173 -4199 -7011 -36 -359 -41 -479 -41 -960 0 -481 5 -601 41 -960 185
-1877 926 -3662 2129 -5130 282 -344 735 -815 1055 -1097 987 -869 2100 -1513
3325 -1923 1848 -619 3873 -658 5745 -110 2166 634 4049 2020 5299 3900 833
1253 1350 2646 1535 4135 115 920 94 1858 -60 2785 -377 2260 -1569 4324
-3349 5801 -996 826 -2181 1455 -3425 1819 -1010 296 -2114 426 -3165 374z
m880 -609 c1260 -59 2453 -362 3580 -909 786 -382 1440 -834 2160 -1492 476
-435 980 -1027 1350 -1584 675 -1018 1105 -2064 1345 -3273 165 -830 204
-1536 134 -2387 -98 -1197 -346 -2130 -858 -3223 -577 -1235 -1547 -2413
-2706 -3286 -605 -456 -1340 -870 -2045 -1151 -1396 -559 -2934 -757 -4445
-575 -1188 144 -2399 556 -3460 1178 -204 119 -574 366 -775 517 -664 499
-1281 1102 -1738 1698 -662 863 -1080 1636 -1412 2608 -312 916 -457 1750
-481 2764 -28 1207 186 2368 646 3505 560 1383 1490 2648 2640 3589 477 391
1116 803 1689 1091 1344 673 2879 999 4376 930z"/>
<path d="M9005 18519 c-339 -25 -618 -58 -647 -75 -5 -3 22 -39 60 -79 94 -99
190 -266 216 -376 6 -26 4 -26 -57 -33 -134 -14 -265 -41 -591 -123 l-340 -86
-52 27 c-69 37 -213 152 -358 288 l-118 112 -72 -18 c-94 -24 -387 -122 -455
-152 l-53 -24 17 -27 c41 -65 98 -128 257 -283 l169 -166 -112 -49 c-62 -26
-196 -91 -298 -142 -183 -92 -185 -93 -194 -71 -5 13 -10 168 -11 345 -1 246
-4 323 -13 323 -18 0 -96 -32 -300 -122 l-183 -81 -2 -56 c-2 -97 3 -211 18
-371 7 -85 14 -172 14 -194 0 -34 -2 -37 -16 -25 -8 7 -97 113 -196 236 -155
193 -183 223 -202 217 -29 -8 -134 -66 -306 -168 -80 -47 -151 -89 -159 -94
-20 -11 -5 -36 204 -348 164 -243 204 -310 193 -318 -105 -77 -322 -263 -476
-409 l-84 -79 -45 7 c-119 18 -400 119 -533 192 -36 20 -119 71 -186 114 -66
44 -125 79 -130 79 -15 0 -138 -101 -283 -232 l-134 -122 60 -56 c91 -86 428
-303 659 -425 49 -26 94 -52 101 -58 9 -9 -20 -52 -123 -182 -142 -180 -315
-420 -409 -570 -31 -49 -60 -91 -64 -93 -16 -6 -118 98 -202 204 -159 204
-244 346 -364 614 -37 82 -67 135 -75 135 -21 0 -450 -496 -450 -520 0 -31 62
-165 131 -283 139 -240 339 -514 498 -686 63 -69 101 -118 101 -132 0 -11 -18
-61 -41 -110 -56 -122 -154 -360 -170 -411 -8 -27 -18 -43 -28 -43 -23 0 -299
284 -405 415 -121 151 -258 359 -361 549 -47 87 -92 167 -99 178 -12 17 -19
11 -83 -84 -105 -154 -251 -393 -258 -421 -9 -33 15 -84 100 -222 231 -373
395 -574 725 -890 142 -136 178 -176 179 -198 0 -15 -8 -69 -19 -120 -26 -118
-29 -127 -41 -127 -6 0 -67 41 -137 91 -233 168 -461 291 -742 402 -235 93
-520 181 -534 166 -2 -2 -38 -81 -79 -174 -71 -162 -112 -275 -100 -275 3 0
53 -7 112 -16 304 -45 580 -143 847 -301 133 -79 243 -159 428 -312 l127 -104
-6 -61 c-4 -34 -13 -119 -21 -191 -18 -167 -34 -397 -34 -502 0 -46 -4 -83 -8
-83 -14 0 -89 57 -130 98 -67 67 -142 162 -224 286 -45 67 -111 159 -148 206
-92 116 -292 308 -422 405 -195 146 -589 379 -608 359 -13 -15 -120 -337 -120
-364 0 -21 13 -32 85 -68 131 -67 313 -192 403 -277 115 -108 183 -196 357
-460 185 -281 240 -351 417 -531 l138 -141 -65 9 c-139 19 -324 84 -550 194
-263 128 -455 244 -758 457 -109 77 -201 137 -204 134 -10 -11 -43 -159 -72
-332 -46 -271 -49 -235 22 -302 155 -144 589 -495 716 -578 401 -263 966 -453
1632 -550 683 -98 1440 -100 2114 -4 191 27 331 56 665 138 659 161 975 207
1383 198 272 -5 341 -17 475 -83 157 -77 238 -208 288 -469 26 -133 11 -302
-34 -392 -55 -106 -247 -236 -442 -297 -144 -46 -260 -59 -480 -53 -271 8
-458 39 -968 161 -404 97 -499 112 -809 125 -354 15 -724 -13 -1058 -80 -208
-41 -373 -85 -785 -206 -503 -147 -737 -205 -1040 -254 -159 -26 -529 -37
-681 -20 -316 36 -637 135 -963 297 -71 35 -134 64 -140 64 -35 0 63 -763 140
-1092 9 -37 21 -71 27 -76 7 -5 100 -40 207 -77 438 -153 506 -178 529 -190
23 -12 19 -14 -65 -33 -49 -12 -177 -39 -284 -61 -233 -48 -270 -58 -276 -75
-3 -8 18 -100 47 -205 l52 -191 31 0 c17 0 94 7 171 15 165 17 648 20 865 5
171 -12 453 -40 459 -46 11 -11 -62 -92 -129 -143 -178 -134 -589 -335 -1018
-497 l-104 -39 5 -31 c6 -33 95 -236 162 -369 30 -58 47 -81 63 -83 11 -2 87
17 168 42 534 167 1241 245 1970 217 319 -13 547 -29 889 -66 480 -51 635 -59
1110 -59 474 -1 594 7 872 54 284 49 565 130 768 222 61 28 134 61 163 74 l53
24 -18 -31 c-27 -46 -164 -201 -283 -319 -577 -577 -1484 -931 -2539 -992
-499 -29 -1115 56 -1766 243 -310 89 -771 250 -1111 388 -221 89 -234 93 -234
75 0 -40 374 -701 429 -757 22 -23 75 -37 351 -92 124 -25 249 -50 277 -56 29
-6 55 -14 58 -19 9 -15 -136 -34 -437 -55 l-87 -7 10 -26 c13 -35 99 -157 233
-331 61 -80 114 -149 118 -155 4 -6 64 -2 170 13 90 13 212 25 273 28 l110 6
-124 -129 c-151 -157 -184 -200 -172 -223 24 -42 325 -371 341 -371 5 0 57 33
117 73 295 199 623 259 1338 241 615 -15 835 -12 1015 16 202 31 321 32 374 4
87 -45 104 -163 47 -331 -93 -278 -278 -527 -578 -775 -160 -133 -413 -306
-645 -441 -53 -31 -99 -61 -103 -66 -3 -6 27 -33 67 -61 99 -70 520 -309 556
-316 58 -12 169 64 577 390 280 224 371 283 452 292 40 5 54 2 82 -18 79 -53
105 -150 105 -383 0 -188 -9 -254 -74 -525 -22 -91 -43 -186 -46 -211 l-6 -46
88 -33 c132 -48 309 -107 386 -129 l68 -19 5 21 c3 12 20 96 40 187 43 204 76
317 144 485 59 148 160 347 179 353 30 10 214 -215 338 -415 132 -211 297
-555 370 -769 20 -60 40 -113 44 -117 4 -5 73 -19 154 -32 325 -54 496 -68
496 -42 0 59 -96 370 -159 518 -60 138 -106 207 -292 439 -194 243 -483 625
-584 775 -118 174 -165 308 -165 470 0 307 200 580 557 760 158 79 401 164
542 189 31 5 33 4 28 -17 -16 -63 -29 -295 -23 -407 31 -606 273 -1137 720
-1586 150 -150 200 -193 213 -180 4 4 -6 120 -21 259 -47 419 -46 672 5 922
60 295 203 557 372 682 33 23 62 43 66 43 4 0 36 -35 71 -77 35 -43 94 -111
130 -152 109 -125 621 -611 772 -736 187 -153 537 -416 663 -498 347 -227 437
-315 760 -745 134 -178 142 -187 172 -185 33 3 208 66 348 125 76 33 80 36 77
63 -5 39 -40 146 -157 470 -53 149 -99 281 -102 294 l-6 24 30 -21 c51 -36
156 -134 403 -374 129 -125 242 -228 251 -228 36 0 352 161 393 200 18 18 18
19 -12 57 -61 74 -343 320 -667 579 -238 191 -309 245 -675 513 -739 542
-1189 910 -1525 1246 -218 218 -346 390 -450 600 -196 401 -242 848 -139 1355
24 113 24 114 87 89 63 -25 170 -90 280 -172 410 -303 755 -716 1127 -1347
270 -458 501 -764 784 -1038 139 -133 434 -374 811 -659 379 -286 612 -488
819 -708 65 -70 130 -133 143 -142 23 -15 29 -12 188 93 91 60 165 112 165
115 0 3 -32 48 -71 99 -75 100 -116 173 -142 255 -20 64 -32 145 -21 145 5 0
164 -33 354 -74 l345 -74 70 56 c160 129 485 431 485 451 0 5 -62 12 -137 15
-344 17 -579 45 -813 97 -412 91 -720 223 -987 423 -123 91 -368 327 -481 461
-83 99 -225 287 -262 349 l-24 39 115 -6 c353 -19 1182 -181 1703 -332 353
-103 793 -268 1121 -422 94 -44 192 -88 218 -98 l48 -18 17 24 c9 13 57 71
107 129 197 227 538 683 551 736 4 16 -3 39 -22 71 -100 173 -251 469 -243
477 2 2 87 9 189 15 211 13 372 35 437 59 43 16 50 24 110 132 72 127 163 309
163 326 0 7 -59 13 -177 17 -279 10 -468 43 -729 128 -304 98 -432 159 -1334
639 -523 278 -823 431 -1039 527 -310 138 -486 236 -626 347 -93 74 -168 166
-150 184 4 4 165 7 358 7 378 0 451 -7 712 -61 242 -51 551 -160 840 -296 541
-255 934 -401 1367 -507 335 -83 825 -169 1019 -178 l105 -6 36 94 c45 117
112 328 107 333 -2 2 -49 9 -104 15 -427 49 -823 147 -1110 277 -203 92 -315
165 -435 284 -58 58 -116 125 -129 149 l-24 44 144 -6 c79 -4 284 -18 454 -32
523 -41 678 -48 961 -42 266 5 429 23 445 48 22 36 136 676 164 920 15 133 35
411 30 417 -1 1 -76 -20 -166 -47 -406 -123 -608 -155 -974 -155 -417 0 -660
44 -1375 249 -574 165 -764 203 -1060 212 -325 10 -608 -41 -874 -159 -50 -22
-118 -51 -151 -65 -229 -97 -917 -240 -1276 -265 -494 -34 -924 73 -1339 333
-169 105 -180 116 -228 212 -37 76 -42 93 -42 155 0 173 53 297 184 428 141
141 307 206 574 224 337 23 806 -39 1352 -177 641 -162 1053 -220 1635 -230
672 -11 1260 51 1853 198 607 149 953 324 1419 716 386 326 383 323 383 353 0
91 -139 775 -168 827 -6 10 -35 -9 -119 -80 -414 -354 -870 -618 -1327 -766
-114 -37 -287 -80 -324 -81 -11 0 -13 33 -11 163 2 89 0 272 -5 407 l-8 245
179 115 c425 275 755 538 1195 955 l87 83 -28 78 c-60 172 -216 515 -236 520
-5 1 -75 -69 -155 -157 -274 -302 -522 -526 -865 -784 -168 -126 -242 -172
-255 -159 -5 5 -31 119 -60 254 -63 304 -82 374 -181 679 -43 134 -79 249 -79
257 0 20 23 29 160 63 307 76 526 96 930 87 157 -3 309 -9 338 -12 46 -6 52
-5 52 12 0 33 -251 486 -285 514 -23 19 -178 23 -430 11 -418 -20 -521 -33
-813 -103 -95 -23 -174 -39 -176 -37 -10 10 -156 310 -156 319 0 6 46 61 103
123 56 62 126 142 154 178 129 163 419 394 580 461 29 12 53 26 53 31 0 20
-295 371 -379 451 -28 27 -32 28 -62 16 -51 -22 -191 -112 -297 -194 -109 -84
-258 -226 -401 -383 -51 -57 -95 -103 -99 -103 -4 1 -38 47 -77 103 -92 134
-295 406 -340 456 -20 22 -32 42 -27 45 4 2 82 18 173 35 359 67 666 177 794
285 37 32 39 35 26 59 -17 32 -395 379 -426 391 -17 7 -39 2 -88 -17 -140 -56
-297 -88 -579 -117 -112 -12 -247 -30 -301 -41 -150 -29 -142 -31 -243 66 -49
47 -126 115 -171 152 -44 37 -79 71 -77 75 2 3 38 25 79 47 166 92 459 306
558 409 l38 39 -68 51 c-81 59 -312 209 -400 259 -38 21 -68 31 -75 27 -7 -5
-59 -43 -116 -86 -141 -108 -423 -241 -591 -280 l-49 -11 -203 123 c-221 134
-555 309 -794 415 -170 76 -392 165 -412 165 -7 0 -13 4 -13 9 0 25 126 108
417 272 113 63 205 119 205 124 0 5 -29 20 -63 33 -165 61 -806 242 -859 242
-34 0 -183 -109 -392 -287 -86 -73 -164 -133 -174 -133 -10 0 -99 16 -198 34
-100 19 -237 42 -306 51 -69 9 -129 20 -133 25 -11 10 42 115 103 205 26 39
87 112 134 164 48 52 83 97 79 102 -18 18 -525 69 -691 69 -63 0 -102 -5 -122
-15 -67 -34 -196 -223 -260 -379 -20 -49 -41 -91 -46 -93 -6 -2 -51 58 -101
134 -102 156 -232 301 -296 332 -47 23 -81 24 -272 10z m-3693 -10624 c216
-32 348 -73 942 -295 601 -224 876 -334 876 -350 0 -18 -291 -117 -555 -190
-620 -170 -1106 -183 -1665 -44 -240 60 -436 139 -598 242 -85 55 -85 55 -19
170 144 253 364 419 622 467 95 18 280 18 397 0z m2131 -831 c56 -19 129 -81
161 -137 28 -48 52 -131 59 -198 l4 -46 -61 19 c-132 41 -200 50 -461 58 -245
8 -365 21 -365 40 0 19 124 118 205 164 179 102 346 138 458 100z m-3326 -234
c99 -33 205 -93 292 -163 65 -52 90 -81 80 -92 -15 -14 -137 -26 -379 -35
-258 -10 -359 -22 -449 -54 -24 -9 -46 -14 -49 -11 -11 11 21 146 47 202 86
180 233 230 458 153z m7283 -100 c634 -58 1244 -328 1678 -744 168 -161 467
-537 536 -673 44 -88 45 -87 -101 -80 -486 23 -1117 272 -1528 604 -128 104
-455 436 -569 578 -96 121 -189 255 -205 298 -10 27 -10 27 32 27 23 0 94 -5
157 -10z m-2453 -917 c-13 -399 -84 -710 -233 -1008 -149 -300 -374 -535 -642
-669 -154 -78 -363 -154 -466 -171 l-39 -6 7 98 c36 495 214 953 506 1298 90
107 225 239 332 324 183 146 467 321 522 321 18 0 19 -7 13 -187z m5123 95
c121 -25 415 -122 548 -182 573 -254 1055 -754 1365 -1416 66 -140 66 -140 20
-140 -119 1 -450 108 -678 219 -387 190 -727 480 -1026 876 -162 215 -419 622
-419 665 0 13 50 7 190 -22z"/>
</g>
</svg>
